<svg width="582" height="771" viewBox="0 0 582 771" fill="none" xmlns="http://www.w3.org/2000/svg">
<path fill-rule="evenodd" clip-rule="evenodd" d="M162.004 244L302.004 147L406.004 214.976L433.504 232L499.504 413.5L434.504 545L328.504 591.918L312.504 599L178.504 545L109.004 408L142.129 305.5L162.004 244Z" fill="url(#paint0_linear_81_122)"/>
<path fill-rule="evenodd" clip-rule="evenodd" d="M499.504 413.5L433.504 232L514.004 195.5L582.004 390L499.504 413.5Z" fill="#424242"/>
<path fill-rule="evenodd" clip-rule="evenodd" d="M433.504 232L406.004 214.976L423.504 147L514.004 195.5L433.504 232Z" fill="#404040"/>
<path fill-rule="evenodd" clip-rule="evenodd" d="M406.004 214.976L302.004 147L373.504 48L423.504 147L406.004 214.976Z" fill="#525252"/>
<path fill-rule="evenodd" clip-rule="evenodd" d="M302.004 147L162.004 244L142.129 305.5L153.004 244V129.5L212.004 106L223.004 78.5L302.004 10.5V147Z" fill="url(#paint1_linear_81_122)"/>
<path fill-rule="evenodd" clip-rule="evenodd" d="M373.504 48L302.004 147V10.5L223.004 78.5L212.004 106L153.004 129.5L148.004 123L203.004 99.5L216.004 71.5L302.004 0L373.504 48Z" fill="url(#paint2_linear_81_122)"/>
<path fill-rule="evenodd" clip-rule="evenodd" d="M153.004 244L142.129 305.5L130.004 271.5L75.5042 260.5L70.5042 255.5L110.504 229L148.004 123L153.004 129.5V244Z" fill="url(#paint3_linear_81_122)"/>
<path fill-rule="evenodd" clip-rule="evenodd" d="M70.5042 255.5L75.5042 260.5L109.004 408L22.5042 405.5L70.5042 255.5Z" fill="#717171"/>
<path fill-rule="evenodd" clip-rule="evenodd" d="M109.004 408L178.504 545L109.004 594L22.5042 405.5L109.004 408Z" fill="#484848"/>
<path fill-rule="evenodd" clip-rule="evenodd" d="M178.504 545L312.504 599L287.004 709L194.504 656.5L178.504 545Z" fill="#3A3A3A"/>
<path fill-rule="evenodd" clip-rule="evenodd" d="M142.129 305.5L109.004 408L75.5042 260.5L130.004 271.5L142.129 305.5Z" fill="url(#paint4_linear_81_122)"/>
<path fill-rule="evenodd" clip-rule="evenodd" d="M328.504 591.918L434.504 545L485.004 614.5L287.004 709L328.504 591.918Z" fill="#373737"/>
<path fill-rule="evenodd" clip-rule="evenodd" d="M434.504 545L499.504 413.5L582.004 390L485.004 614.5L434.504 545Z" fill="#4C4C4C"/>
<path fill-rule="evenodd" clip-rule="evenodd" d="M312.504 599L328.504 591.918L287.004 709L312.504 599Z" fill="#3D3D3D"/>
<path d="M178.504 545L109.004 594L194.504 656.5L178.504 545Z" fill="#323232"/>
<g filter="url(#filter0_f_81_122)">
<path d="M314.004 594L287.504 708.5L328.004 592.5L298.504 497.5L322.004 355.5L423.504 288L432.504 232L512.504 196L416.504 222L405.504 266.5L298.504 328.5L148.004 288L136.004 263L75.5042 260.5L129.504 271L140.504 311L271.504 355.5L274.504 491L314.004 594Z" fill="url(#paint5_radial_81_122)"/>
</g>
<g filter="url(#filter1_f_81_122)">
<path d="M314.004 594L287.504 708.5L328.004 592.5L298.504 497.5L322.004 355.5L423.504 288L432.504 232L512.504 196L416.504 222L405.504 266.5L298.504 328.5L148.004 288L136.004 263L75.5042 260.5L129.504 271L140.504 311L271.504 355.5L274.504 491L314.004 594Z" fill="url(#paint6_radial_81_122)" fill-opacity="0.78"/>
<path d="M287.504 708.5C294.254 680.228 300.994 651.954 307.735 623.681C310.08 613.846 312.425 604.012 314.771 594.178L314.826 593.948L314.74 593.718C303.117 562.788 291.502 531.855 279.912 500.912C278.603 497.419 277.298 493.924 275.995 490.428L276.101 490.965C275.529 445.788 275.365 400.603 274.488 355.434L274.448 353.354L272.464 352.674C269.002 351.487 265.539 350.305 262.073 349.128C221.872 335.472 181.555 322.156 141.22 308.894L142.649 310.41C138.852 297.113 135.049 283.817 131.25 270.52L130.967 269.452L129.85 269.223C119.136 267.25 108.423 265.274 97.7108 263.29C90.3913 261.934 83.0486 260.698 75.6996 259.495L75.4619 261.523C90.4045 261.695 105.353 261.733 120.277 262.35C125.519 262.567 130.759 262.858 135.996 263.19L135.833 263.082C139.648 271.504 143.349 279.981 147.097 288.436L147.271 288.83L147.743 288.972C155.682 291.368 163.632 293.723 171.628 295.911C213.743 307.433 255.848 318.989 297.991 330.406L298.78 330.62L299.494 330.208C308.042 325.274 316.586 320.334 325.126 315.386C352.253 299.667 379.38 283.949 406.507 268.23L407.242 267.805L407.446 266.98C411.112 252.147 414.779 237.313 418.446 222.48L417.027 223.93C425.378 221.669 433.728 219.407 442.079 217.146C465.728 210.741 489.063 203.174 512.571 196.248L512.399 195.766C505.996 198.818 499.57 201.82 493.103 204.731C472.903 213.82 452.294 221.999 431.793 230.419L430.982 230.752L430.792 231.725C428.324 244.387 425.944 257.063 423.898 269.792C422.944 275.729 421.991 281.666 421.039 287.604L422.122 285.921C388.296 308.433 354.497 330.985 320.726 353.577L319.894 354.127L319.726 355.123C312.022 402.478 304.384 449.843 296.813 497.22L296.746 497.611L296.867 498.008C306.876 529.62 316.916 561.223 326.986 592.816L326.997 592.149C323.162 603.403 319.331 614.659 315.503 625.917C306.147 653.437 296.814 680.964 287.504 708.5C297.356 681.153 307.184 653.799 316.99 626.436C321.001 615.242 325.008 604.048 329.011 592.851L329.127 592.511L329.023 592.184C319.426 560.444 309.799 528.713 300.141 496.992L300.195 497.78C308.29 450.49 316.32 403.189 324.282 355.877L323.283 357.423C357.178 335.015 391.046 312.567 424.887 290.079L425.797 289.474L425.969 288.396C426.926 282.46 427.881 276.523 428.835 270.586C430.881 257.856 432.593 245.073 434.216 232.275L433.216 233.581C453.114 223.821 472.903 213.82 493.103 204.731C499.57 201.82 506.078 199.002 512.61 196.234L515.563 194.902L512.437 195.752C488.646 201.636 464.683 206.88 441.033 213.285C432.683 215.546 424.332 217.808 415.981 220.07L414.845 220.377L414.563 221.52C410.896 236.353 407.229 251.187 403.563 266.02L404.501 264.77C377.374 280.488 350.247 296.206 323.12 311.925C314.581 316.873 306.046 321.829 297.515 326.792L299.017 326.594C256.836 315.319 214.617 304.183 172.408 293.014C164.394 290.893 156.335 288.94 148.266 287.028L148.912 287.564C144.66 279.352 140.36 271.163 136.176 262.918L136.122 262.812L136.012 262.81C130.765 262.709 125.519 262.567 120.277 262.35C105.353 261.733 90.4523 260.538 75.5464 259.477L61.9999 258.931L75.3087 261.505C82.5732 263.143 89.8441 264.749 97.1382 266.235C107.813 268.409 118.486 270.592 129.159 272.777L127.759 271.48C131.293 284.85 134.823 298.221 138.359 311.59L138.689 312.745L139.789 313.106C179.856 327.156 219.942 341.153 260.143 354.809C263.609 355.986 267.076 357.158 270.544 358.326L268.52 355.566C269.643 400.73 271.479 445.878 272.907 491.035L272.917 491.328L273.013 491.572C274.382 495.042 275.748 498.514 277.111 501.987C289.183 532.744 301.23 563.512 313.269 594.282L313.237 593.822C311.024 603.687 308.81 613.552 306.596 623.417C300.23 651.777 293.862 680.138 287.504 708.5ZM287.504 708.5" fill="url(#paint7_radial_81_122)"/>
</g>
<path d="M314.004 594L287.004 709L328.004 592.5L298.504 497.5L322.004 355.5L423.504 288L432.504 232L509.504 197.5L416.504 222L405.504 266.5L298.504 328.5L148.004 288L136.004 263L87.5042 262L129.504 271L140.504 311L271.504 355.5L274.504 491L314.004 594Z" fill="url(#paint8_radial_81_122)"/>
<path d="M287.004 709C293.731 681.228 300.448 653.454 307.167 625.681C309.707 615.182 312.247 604.683 314.788 594.184L314.845 593.949L314.756 593.712C303.637 564.111 292.526 534.507 281.439 504.895C279.633 500.069 277.832 495.242 276.037 490.412L276.145 490.964C275.607 445.787 275.453 400.601 274.501 355.434L274.457 353.339L272.468 352.661C271.192 352.226 269.915 351.792 268.637 351.358C226.248 336.958 183.725 322.95 141.19 308.98L142.561 310.434C138.759 297.138 134.954 283.843 131.155 270.546L130.894 269.557L129.863 269.325C122.567 267.837 115.271 266.347 107.975 264.853C101.243 263.474 94.4887 262.2 87.7271 260.96L87.4822 263.064C102.619 262.927 117.759 262.624 132.886 262.936C133.925 262.957 134.965 262.982 136.004 263.009C139.95 271.359 143.707 279.809 147.44 288.271L147.548 288.515L147.841 288.604C159.436 292.126 171.018 295.693 182.7 298.89C221.127 309.407 259.547 319.952 297.996 330.389L298.776 330.601L299.485 330.192C310.562 323.806 321.633 317.41 332.696 310.999C357.3 296.743 381.903 282.487 406.507 268.23L407.242 267.805L407.446 266.98C411.112 252.147 414.779 237.313 418.446 222.48L417.014 223.934C427.296 221.225 437.578 218.517 447.86 215.808C468.578 210.35 489.053 203.972 509.621 197.943L509.317 197.082C500.634 201.264 491.92 205.378 483.128 209.318C466.254 216.878 449.084 223.782 431.937 230.734L431.289 230.996L431.134 231.78C428.033 247.446 424.971 263.118 422.438 278.875C421.971 281.785 421.504 284.694 421.037 287.603L422.12 285.919C388.291 308.425 354.489 330.973 320.715 353.562L319.877 354.116L319.708 355.12C311.999 402.474 304.36 449.839 296.789 497.216L296.721 497.612L296.844 498.016C306.853 529.628 316.894 561.23 326.966 592.822L326.979 592.139C322.888 604.051 318.801 615.964 314.719 627.878C305.457 654.911 296.219 681.951 287.004 709C296.761 682.142 306.494 655.275 316.204 628.401C320.484 616.556 324.759 604.709 329.029 592.861L329.149 592.513L329.042 592.178C319.448 560.437 309.822 528.706 300.164 496.984L300.219 497.784C308.315 450.494 316.342 403.193 324.3 355.88L323.293 357.438C357.186 335.027 391.051 312.575 424.888 290.081L425.798 289.475L425.972 288.397C426.44 285.487 426.908 282.578 427.375 279.669C429.908 263.911 431.91 248.069 433.874 232.22L433.071 233.266C449.673 225.097 466.254 216.878 483.128 209.318C491.92 205.378 500.791 201.615 509.691 197.918L514.785 195.629L509.387 197.057C488.519 201.944 467.559 206.482 446.841 211.94C436.559 214.649 426.277 217.357 415.995 220.066L414.847 220.368L414.563 221.52C410.896 236.353 407.229 251.187 403.563 266.02L404.501 264.77C379.898 279.026 355.294 293.282 330.691 307.538C319.628 313.949 308.573 320.373 297.524 326.808L299.012 326.611C260.518 316.342 221.995 306.182 183.48 295.993C171.771 292.896 159.963 290.168 148.167 287.396L148.568 287.729C144.301 279.524 140.058 271.307 136.012 262.996C134.965 262.976 133.925 262.957 132.886 262.936C117.759 262.624 102.644 261.697 87.5261 260.936L76.3894 260.724L87.2812 263.04C93.9575 264.679 100.641 266.285 107.347 267.786C114.614 269.412 121.88 271.043 129.145 272.675L127.853 271.454C131.388 284.824 134.916 298.195 138.447 311.566L138.764 312.674L139.818 313.02C182.062 327.848 224.318 342.64 266.708 357.039C267.985 357.473 269.262 357.906 270.54 358.339L268.507 355.566C269.556 400.732 271.401 445.88 272.863 491.036L272.873 491.338L272.972 491.588C274.866 496.379 276.755 501.173 278.638 505.969C290.195 535.401 301.727 564.843 313.252 594.288L313.22 593.816C310.823 604.349 308.426 614.881 306.028 625.414C299.685 653.275 293.339 681.136 287.004 709ZM287.004 709" fill="url(#paint9_radial_81_122)"/>
<defs>
<filter id="filter0_f_81_122" x="62.0042" y="182.5" width="464" height="539.5" filterUnits="userSpaceOnUse" color-interpolation-filters="sRGB">
<feFlood flood-opacity="0" result="BackgroundImageFix"/>
<feBlend mode="normal" in="SourceGraphic" in2="BackgroundImageFix" result="shape"/>
<feGaussianBlur stdDeviation="6.75" result="effect1_foregroundBlur_81_122"/>
</filter>
<filter id="filter1_f_81_122" x="0" y="132.902" width="577.563" height="637.598" filterUnits="userSpaceOnUse" color-interpolation-filters="sRGB">
<feFlood flood-opacity="0" result="BackgroundImageFix"/>
<feBlend mode="normal" in="SourceGraphic" in2="BackgroundImageFix" result="shape"/>
<feGaussianBlur stdDeviation="31" result="effect1_foregroundBlur_81_122"/>
</filter>
<linearGradient id="paint0_linear_81_122" x1="235.504" y1="57" x2="394.004" y2="657.5" gradientUnits="userSpaceOnUse">
<stop stop-color="#7B7B7B"/>
<stop offset="1" stop-color="#303030"/>
</linearGradient>
<linearGradient id="paint1_linear_81_122" x1="212.004" y1="88.5" x2="239.004" y2="192" gradientUnits="userSpaceOnUse">
<stop stop-color="#6E6E6E"/>
<stop offset="1" stop-color="#8E8E8E"/>
</linearGradient>
<linearGradient id="paint2_linear_81_122" x1="351.504" y1="79" x2="121.004" y2="114" gradientUnits="userSpaceOnUse">
<stop stop-color="#454545"/>
<stop offset="1" stop-color="#636363"/>
</linearGradient>
<linearGradient id="paint3_linear_81_122" x1="111.754" y1="123" x2="111.754" y2="305.5" gradientUnits="userSpaceOnUse">
<stop stop-color="#5D5D5D"/>
<stop offset="1" stop-color="#999999"/>
</linearGradient>
<linearGradient id="paint4_linear_81_122" x1="108.817" y1="260.5" x2="108.817" y2="408" gradientUnits="userSpaceOnUse">
<stop stop-color="#9C9C9C"/>
<stop offset="1" stop-color="#606060"/>
</linearGradient>
<radialGradient id="paint5_radial_81_122" cx="0" cy="0" r="1" gradientUnits="userSpaceOnUse" gradientTransform="translate(306.004 339.5) rotate(92.4896) scale(379.859 255.085)">
<stop stop-color="#FFF1B8" stop-opacity="0"/>
<stop offset="1" stop-color="#FF8800"/>
</radialGradient>
<radialGradient id="paint6_radial_81_122" cx="0" cy="0" r="1" gradientUnits="userSpaceOnUse" gradientTransform="translate(306.004 339.5) rotate(92.4896) scale(379.859 255.085)">
<stop stop-color="#FFF1B8"/>
<stop offset="1" stop-color="#FF8800"/>
</radialGradient>
<radialGradient id="paint7_radial_81_122" cx="0" cy="0" r="1" gradientUnits="userSpaceOnUse" gradientTransform="translate(307.004 336) rotate(92.9071) scale(384.494 258.198)">
<stop stop-color="#FFC261"/>
<stop offset="1" stop-color="#8E5113"/>
</radialGradient>
<radialGradient id="paint8_radial_81_122" cx="0" cy="0" r="1" gradientUnits="userSpaceOnUse" gradientTransform="translate(306.004 339.5) rotate(92.4896) scale(379.859 255.085)">
<stop stop-color="#FFF1B8"/>
<stop offset="1" stop-color="#FF8800"/>
</radialGradient>
<radialGradient id="paint9_radial_81_122" cx="0" cy="0" r="1" gradientUnits="userSpaceOnUse" gradientTransform="translate(307.004 335.999) rotate(92.9071) scale(384.494 258.198)">
<stop stop-color="#FFC261"/>
<stop offset="1" stop-color="#8E5113"/>
</radialGradient>
</defs>
</svg>
