<svg width="588" height="758" viewBox="0 0 588 758" fill="none" xmlns="http://www.w3.org/2000/svg">
<path fill-rule="evenodd" clip-rule="evenodd" d="M153.418 260.215L293.418 163.215L397.418 231.191L459.418 271.715L490.918 429.715L425.918 561.215L319.918 608.133L303.918 615.215L169.918 561.215L100.418 424.215L133.543 321.715L153.418 260.215Z" fill="url(#paint0_linear_81_122)"/>
<path fill-rule="evenodd" clip-rule="evenodd" d="M490.918 429.715L459.418 271.715L505.418 211.715L573.418 406.215L490.918 429.715Z" fill="#2C2C2C"/>
<path fill-rule="evenodd" clip-rule="evenodd" d="M459.418 271.715L397.418 231.191L414.918 163.215L505.418 211.715L459.418 271.715Z" fill="#404040"/>
<path fill-rule="evenodd" clip-rule="evenodd" d="M397.418 231.191L293.418 163.215L364.918 64.2153L414.918 163.215L397.418 231.191Z" fill="#252525"/>
<path fill-rule="evenodd" clip-rule="evenodd" d="M293.418 163.215L153.418 260.215L133.543 321.715L144.418 260.215V145.715L203.418 122.215L214.418 94.7153L293.418 26.7153V163.215Z" fill="url(#paint1_linear_81_122)"/>
<path fill-rule="evenodd" clip-rule="evenodd" d="M364.918 64.2153L293.418 163.215V26.7153L214.418 94.7153L203.418 122.215L144.418 145.715L139.418 139.215L194.418 115.715L207.418 87.7153L293.418 16.2153L364.918 64.2153Z" fill="url(#paint2_linear_81_122)"/>
<path fill-rule="evenodd" clip-rule="evenodd" d="M144.418 260.215L133.543 321.715L121.418 287.715L66.918 276.715L61.918 271.715L101.918 245.215L139.418 139.215L144.418 145.715V260.215Z" fill="url(#paint3_linear_81_122)"/>
<path fill-rule="evenodd" clip-rule="evenodd" d="M61.918 271.715L66.918 276.715L100.418 424.215L13.918 421.715L61.918 271.715Z" fill="#424242"/>
<path fill-rule="evenodd" clip-rule="evenodd" d="M100.418 424.215L169.918 561.215L100.418 610.215L13.918 421.715L100.418 424.215Z" fill="#262626"/>
<path fill-rule="evenodd" clip-rule="evenodd" d="M169.918 561.215L303.918 615.215L278.418 725.215L185.918 672.715L169.918 561.215Z" fill="#2D2D2D"/>
<path fill-rule="evenodd" clip-rule="evenodd" d="M133.543 321.715L100.418 424.215L66.918 276.715L121.418 287.715L133.543 321.715Z" fill="url(#paint4_linear_81_122)"/>
<path fill-rule="evenodd" clip-rule="evenodd" d="M319.918 608.133L425.918 561.215L476.418 630.715L278.418 725.215L319.918 608.133Z" fill="#1C1C1C"/>
<path fill-rule="evenodd" clip-rule="evenodd" d="M425.918 561.215L490.918 429.715L573.418 406.215L476.418 630.715L425.918 561.215Z" fill="#373737"/>
<path fill-rule="evenodd" clip-rule="evenodd" d="M303.918 615.215L319.918 608.133L278.418 725.215L303.918 615.215Z" fill="#3D3D3D"/>
<path d="M169.918 561.215L100.418 610.215L185.918 672.715L169.918 561.215Z" fill="#262626"/>
<g filter="url(#filter0_f_81_122)">
<path d="M305.418 610.215L278.918 724.715L319.418 608.715L289.918 513.715L330.918 338.715L407.918 280.215L413.418 170.215L390.918 268.215L293.918 335.215L139.418 304.215L127.418 279.215L66.918 276.715L120.918 287.215L133.918 321.715L283.418 362.715L265.918 507.215L305.418 610.215Z" fill="url(#paint5_radial_81_122)" fill-opacity="0.71"/>
<path d="M278.918 724.715C285.478 697.262 292.028 669.807 298.581 642.352C301.123 631.701 303.665 621.049 306.208 610.398L306.265 610.162L306.175 609.925C295.293 580.947 284.419 551.966 273.569 522.976C271.529 517.527 269.498 512.074 267.472 506.619L267.57 507.415C273.485 462.571 279.772 417.773 285.21 372.871C285.605 369.606 285.999 366.341 286.39 363.075L286.703 360.516L284.21 359.829C234.358 346.229 184.367 333.137 134.394 319.978L135.603 321.08C131.882 311.502 128.164 301.923 124.452 292.341C123.725 290.463 122.988 288.588 122.245 286.715L121.987 285.993L121.189 285.823C103.127 282.641 84.9459 280.072 66.9209 276.7L66.9173 276.73C68.2987 276.778 69.6799 276.829 71.0608 276.887C89.8465 277.663 108.59 279.453 127.361 280.592L126.176 279.812C127.555 282.832 128.951 285.843 130.375 288.842C132.916 294.194 135.455 299.546 137.995 304.898L138.33 305.603L139.108 305.763C184.227 315.025 229.344 324.299 274.504 333.36C280.844 334.632 287.184 335.904 293.525 337.176L294.356 337.343L295.055 336.861C327.388 314.528 359.721 292.194 392.055 269.861L392.694 269.42L392.867 268.663C394.64 260.942 396.413 253.221 398.185 245.5C403.913 220.554 408.283 195.297 413.561 170.248L413.272 170.208C413.109 175.291 412.91 180.373 412.656 185.452C411.077 217.04 407.341 248.52 405.457 280.092L406.427 278.253C404.5 279.688 402.579 281.132 400.665 282.586C376.912 300.632 353.176 318.7 329.456 336.791L328.766 337.313L328.565 338.164C315.006 396.523 301.556 454.907 288.214 513.316L288.105 513.77L288.247 514.234C298.256 545.846 308.299 577.448 318.374 609.04L318.386 608.355C314.281 620.406 310.181 632.458 306.086 644.512C297.007 671.239 287.951 697.973 278.918 724.715C288.493 698.162 298.044 671.601 307.572 645.031C311.87 633.048 316.162 621.063 320.45 609.076L320.569 608.727L320.462 608.391C310.871 576.649 301.246 544.918 291.589 513.196L291.622 514.115C305.614 455.857 319.497 397.575 333.271 339.267L332.38 340.64C356.167 322.638 379.937 304.613 403.69 286.567C405.604 285.113 407.509 283.65 409.409 282.178L410.334 281.461L410.379 280.338C411.654 248.735 411.077 217.04 412.656 185.452C412.91 180.373 413.219 175.297 413.564 170.223L413.646 168.56L413.275 170.183C407.098 195.025 400.014 219.659 394.287 244.605C392.514 252.326 390.741 260.047 388.969 267.768L389.781 266.57C357.448 288.903 325.115 311.236 292.781 333.57L294.311 333.254C287.971 331.982 281.631 330.71 275.291 329.438C230.131 320.377 184.929 311.528 139.728 302.668L140.841 303.532C138.253 298.203 135.666 292.874 133.08 287.544C131.63 284.558 130.154 281.584 128.66 278.619L128.276 277.856L127.475 277.839C108.674 277.425 89.8465 277.663 71.0608 276.887C69.6799 276.829 68.2991 276.767 66.9186 276.7L66.7181 276.692L66.9151 276.73C84.89 280.359 102.709 284.79 120.647 288.607L119.591 287.715C120.268 289.613 120.952 291.508 121.645 293.399C125.18 303.047 128.707 312.698 132.233 322.35L132.572 323.223L133.442 323.452C183.136 337.627 232.811 351.868 282.626 365.602L280.446 362.355C280.047 365.62 279.649 368.884 279.254 372.149C273.816 417.051 269.226 462.056 264.266 507.015L264.218 507.444L264.364 507.811C266.505 513.222 268.64 518.634 270.767 524.05C282.084 552.862 293.376 581.682 304.661 610.506L304.628 610.032C302.233 620.718 299.837 631.403 297.441 642.088C291.265 669.63 285.086 697.172 278.918 724.715ZM278.918 724.715" fill="url(#paint6_radial_81_122)"/>
</g>
<g filter="url(#filter1_f_81_122)">
<path d="M305.418 610.215L278.918 724.715L319.418 608.715L289.918 513.715L330.918 338.715L407.918 280.215L413.418 170.215L390.918 268.215L293.918 335.215L139.418 304.215L127.418 279.215L66.918 276.715L120.918 287.215L133.918 321.715L283.418 362.715L265.918 507.215L305.418 610.215Z" fill="url(#paint7_radial_81_122)"/>
</g>
<path d="M305.418 610.215L278.918 724.715L319.418 608.715L289.918 513.715L330.918 338.715L407.918 280.215L413.418 170.215L390.918 268.215L293.918 335.215L139.418 304.215L127.418 279.215L66.918 276.715L120.918 287.215L133.918 321.715L283.418 362.715L265.918 507.215L305.418 610.215Z" fill="url(#paint8_radial_81_122)"/>
<path d="M278.918 724.715C285.478 697.262 292.028 669.807 298.581 642.352C301.123 631.701 303.665 621.049 306.208 610.398L306.265 610.162L306.175 609.925C295.293 580.947 284.419 551.966 273.569 522.976C271.529 517.527 269.498 512.074 267.472 506.619L267.57 507.415C273.485 462.571 279.772 417.773 285.21 372.871C285.605 369.606 285.999 366.341 286.39 363.075L286.703 360.516L284.21 359.829C234.358 346.229 184.367 333.137 134.394 319.978L135.603 321.08C131.882 311.502 128.164 301.923 124.452 292.341C123.725 290.463 122.988 288.588 122.245 286.715L121.987 285.993L121.189 285.823C103.127 282.641 84.9459 280.072 66.9209 276.7L66.9173 276.73C68.2987 276.778 69.6799 276.829 71.0608 276.887C89.8465 277.663 108.59 279.453 127.361 280.592L126.176 279.812C127.555 282.832 128.951 285.843 130.375 288.842C132.916 294.194 135.455 299.546 137.995 304.898L138.33 305.603L139.108 305.763C184.227 315.025 229.344 324.299 274.504 333.36C280.844 334.632 287.184 335.904 293.525 337.176L294.356 337.343L295.055 336.861C327.388 314.528 359.721 292.194 392.055 269.861L392.694 269.42L392.867 268.663C394.64 260.942 396.413 253.221 398.185 245.5C403.913 220.554 408.283 195.297 413.561 170.248L413.272 170.208C413.109 175.291 412.91 180.373 412.656 185.452C411.077 217.04 407.341 248.52 405.457 280.092L406.427 278.253C404.5 279.688 402.579 281.132 400.665 282.586C376.912 300.632 353.176 318.7 329.456 336.791L328.766 337.313L328.565 338.164C315.006 396.523 301.556 454.907 288.214 513.316L288.105 513.77L288.247 514.234C298.256 545.846 308.299 577.448 318.374 609.04L318.386 608.355C314.281 620.406 310.181 632.458 306.086 644.512C297.007 671.239 287.951 697.973 278.918 724.715C288.493 698.162 298.044 671.601 307.572 645.031C311.87 633.048 316.162 621.063 320.45 609.076L320.569 608.727L320.462 608.391C310.871 576.649 301.246 544.918 291.589 513.196L291.622 514.115C305.614 455.857 319.497 397.575 333.271 339.267L332.38 340.64C356.167 322.638 379.937 304.613 403.69 286.567C405.604 285.113 407.509 283.65 409.409 282.178L410.334 281.461L410.379 280.338C411.654 248.735 411.077 217.04 412.656 185.452C412.91 180.373 413.219 175.297 413.564 170.223L413.646 168.56L413.275 170.183C407.098 195.025 400.014 219.659 394.287 244.605C392.514 252.326 390.741 260.047 388.969 267.768L389.781 266.57C357.448 288.903 325.115 311.236 292.781 333.57L294.311 333.254C287.971 331.982 281.631 330.71 275.291 329.438C230.131 320.377 184.929 311.528 139.728 302.668L140.841 303.532C138.253 298.203 135.666 292.874 133.08 287.544C131.63 284.558 130.154 281.584 128.66 278.619L128.276 277.856L127.475 277.839C108.674 277.425 89.8465 277.663 71.0608 276.887C69.6799 276.829 68.2991 276.767 66.9186 276.7L66.7181 276.692L66.9151 276.73C84.89 280.359 102.709 284.79 120.647 288.607L119.591 287.715C120.268 289.613 120.952 291.508 121.645 293.399C125.18 303.047 128.707 312.698 132.233 322.35L132.572 323.223L133.442 323.452C183.136 337.627 232.811 351.868 282.626 365.602L280.446 362.355C280.047 365.62 279.649 368.884 279.254 372.149C273.816 417.051 269.226 462.056 264.266 507.015L264.218 507.444L264.364 507.811C266.505 513.222 268.64 518.634 270.767 524.05C282.084 552.862 293.376 581.682 304.661 610.506L304.628 610.032C302.233 620.718 299.837 631.403 297.441 642.088C291.265 669.63 285.086 697.172 278.918 724.715ZM278.918 724.715" fill="url(#paint9_radial_81_122)"/>
<path d="M297.041 10.8188L368.541 58.8188L369.953 59.7671L370.72 61.2847L419.795 158.454L508.488 205.986L510.719 207.181L511.554 209.57L579.554 404.07L580.391 406.464L579.385 408.793L482.385 633.293L481.418 635.532L479.218 636.582L281.218 731.082L278.158 732.542L275.21 730.869L182.71 678.369L182.384 678.184L182.082 677.962L96.582 615.462L95.2158 614.464L94.5107 612.926L8.01074 424.426L6.95898 422.135L7.72754 419.734L55.7275 269.734L56.4336 267.528L58.376 266.265L96.5205 241.47L133.287 137.056L134.236 134.361L136.864 133.238L189.571 110.716L201.522 84.978L202.138 83.6519L203.263 82.7173L289.263 11.2173L293.003 8.10791L297.041 10.8188Z" stroke="url(#paint10_radial_81_122)" stroke-width="13" stroke-miterlimit="16"/>
<defs>
<filter id="filter0_f_81_122" x="33.718" y="135.56" width="412.928" height="622.155" filterUnits="userSpaceOnUse" color-interpolation-filters="sRGB">
<feFlood flood-opacity="0" result="BackgroundImageFix"/>
<feBlend mode="normal" in="SourceGraphic" in2="BackgroundImageFix" result="shape"/>
<feGaussianBlur stdDeviation="16.5" result="effect1_foregroundBlur_81_122"/>
</filter>
<filter id="filter1_f_81_122" x="58.318" y="161.615" width="363.7" height="571.7" filterUnits="userSpaceOnUse" color-interpolation-filters="sRGB">
<feFlood flood-opacity="0" result="BackgroundImageFix"/>
<feBlend mode="normal" in="SourceGraphic" in2="BackgroundImageFix" result="shape"/>
<feGaussianBlur stdDeviation="4.3" result="effect1_foregroundBlur_81_122"/>
</filter>
<linearGradient id="paint0_linear_81_122" x1="226.918" y1="73.2153" x2="385.418" y2="673.715" gradientUnits="userSpaceOnUse">
<stop stop-color="#7B7B7B"/>
<stop offset="1" stop-color="#303030"/>
</linearGradient>
<linearGradient id="paint1_linear_81_122" x1="203.418" y1="104.715" x2="230.418" y2="208.215" gradientUnits="userSpaceOnUse">
<stop stop-color="#6E6E6E"/>
<stop offset="1" stop-color="#8E8E8E"/>
</linearGradient>
<linearGradient id="paint2_linear_81_122" x1="342.918" y1="95.2153" x2="112.418" y2="130.215" gradientUnits="userSpaceOnUse">
<stop stop-color="#2A2A2A"/>
<stop offset="1" stop-color="#565656"/>
</linearGradient>
<linearGradient id="paint3_linear_81_122" x1="103.168" y1="139.215" x2="103.168" y2="321.715" gradientUnits="userSpaceOnUse">
<stop stop-color="#555555"/>
<stop offset="1" stop-color="#222222"/>
</linearGradient>
<linearGradient id="paint4_linear_81_122" x1="100.23" y1="276.715" x2="100.23" y2="424.215" gradientUnits="userSpaceOnUse">
<stop stop-color="#9C9C9C"/>
<stop offset="1" stop-color="#606060"/>
</linearGradient>
<radialGradient id="paint5_radial_81_122" cx="0" cy="0" r="1" gradientUnits="userSpaceOnUse" gradientTransform="translate(297.418 355.715) rotate(92.4896) scale(379.859 255.085)">
<stop stop-color="#FFF1B8"/>
<stop offset="1" stop-color="#FF8800" stop-opacity="0.68"/>
</radialGradient>
<radialGradient id="paint6_radial_81_122" cx="0" cy="0" r="1" gradientUnits="userSpaceOnUse" gradientTransform="translate(298.418 352.215) rotate(92.9071) scale(384.495 258.198)">
<stop stop-color="#FFC261"/>
<stop offset="1" stop-color="#8E5113"/>
</radialGradient>
<radialGradient id="paint7_radial_81_122" cx="0" cy="0" r="1" gradientUnits="userSpaceOnUse" gradientTransform="translate(297.418 355.715) rotate(92.4896) scale(379.859 255.085)">
<stop stop-color="#FFE26C"/>
<stop offset="1" stop-color="#FF3300"/>
</radialGradient>
<radialGradient id="paint8_radial_81_122" cx="0" cy="0" r="1" gradientUnits="userSpaceOnUse" gradientTransform="translate(297.418 355.715) rotate(92.4896) scale(379.859 255.085)">
<stop stop-color="#FFF1B8"/>
<stop offset="1" stop-color="#FF8800"/>
</radialGradient>
<radialGradient id="paint9_radial_81_122" cx="0" cy="0" r="1" gradientUnits="userSpaceOnUse" gradientTransform="translate(298.418 352.215) rotate(92.9071) scale(384.495 258.198)">
<stop stop-color="#FFC261"/>
<stop offset="1" stop-color="#8E5113"/>
</radialGradient>
<radialGradient id="paint10_radial_81_122" cx="0" cy="0" r="1" gradientTransform="matrix(-31.487 490.994 -416.381 -16.7433 387.725 248.926)" gradientUnits="userSpaceOnUse">
<stop stop-color="#FFC966"/>
</radialGradient>
</defs>
</svg>
